<mxfile host="app.diagrams.net" agent="Mozilla/5.0 (Macintosh; Intel Mac OS X 10_15_7) AppleWebKit/537.36 (KHTML, like Gecko) Chrome/127.0.0.0 Safari/537.36" version="24.7.6">
  <diagram name="Page-1" id="Jw_naqx_jZpX0MMWQDCA">
    <mxGraphModel dx="1246" dy="494" grid="1" gridSize="10" guides="1" tooltips="1" connect="1" arrows="1" fold="1" page="1" pageScale="1" pageWidth="827" pageHeight="1169" math="0" shadow="0">
      <root>
        <mxCell id="0" />
        <mxCell id="1" parent="0" />
        <mxCell id="lyv8LLGaktVecTnRFhs8-1" value="AWS Account" style="points=[[0,0],[0.25,0],[0.5,0],[0.75,0],[1,0],[1,0.25],[1,0.5],[1,0.75],[1,1],[0.75,1],[0.5,1],[0.25,1],[0,1],[0,0.75],[0,0.5],[0,0.25]];outlineConnect=0;gradientColor=none;html=1;whiteSpace=wrap;fontSize=12;fontStyle=0;container=1;pointerEvents=0;collapsible=0;recursiveResize=0;shape=mxgraph.aws4.group;grIcon=mxgraph.aws4.group_account;strokeColor=#CD2264;fillColor=none;verticalAlign=top;align=left;spacingLeft=30;fontColor=#CD2264;dashed=0;" parent="1" vertex="1">
          <mxGeometry x="80" y="70" width="810" height="340" as="geometry" />
        </mxCell>
        <mxCell id="lyv8LLGaktVecTnRFhs8-2" value="&lt;b&gt;&lt;font style=&quot;font-size: 15px;&quot;&gt;Mumbai Region ap-south-1&lt;/font&gt;&lt;/b&gt;" style="points=[[0,0],[0.25,0],[0.5,0],[0.75,0],[1,0],[1,0.25],[1,0.5],[1,0.75],[1,1],[0.75,1],[0.5,1],[0.25,1],[0,1],[0,0.75],[0,0.5],[0,0.25]];outlineConnect=0;gradientColor=none;html=1;whiteSpace=wrap;fontSize=12;fontStyle=0;container=1;pointerEvents=0;collapsible=0;recursiveResize=0;shape=mxgraph.aws4.group;grIcon=mxgraph.aws4.group_region;strokeColor=#00A4A6;fillColor=none;verticalAlign=top;align=left;spacingLeft=30;fontColor=#147EBA;dashed=1;" parent="lyv8LLGaktVecTnRFhs8-1" vertex="1">
          <mxGeometry x="47" y="40" width="700" height="270" as="geometry" />
        </mxCell>
        <mxCell id="lyv8LLGaktVecTnRFhs8-6" style="edgeStyle=orthogonalEdgeStyle;rounded=0;orthogonalLoop=1;jettySize=auto;html=1;" parent="lyv8LLGaktVecTnRFhs8-2" source="lyv8LLGaktVecTnRFhs8-3" target="lyv8LLGaktVecTnRFhs8-4" edge="1">
          <mxGeometry relative="1" as="geometry">
            <Array as="points">
              <mxPoint x="208" y="220" />
            </Array>
          </mxGeometry>
        </mxCell>
        <mxCell id="lyv8LLGaktVecTnRFhs8-7" style="edgeStyle=orthogonalEdgeStyle;rounded=0;orthogonalLoop=1;jettySize=auto;html=1;" parent="lyv8LLGaktVecTnRFhs8-2" source="lyv8LLGaktVecTnRFhs8-14" target="lyv8LLGaktVecTnRFhs8-5" edge="1">
          <mxGeometry relative="1" as="geometry" />
        </mxCell>
        <mxCell id="lyv8LLGaktVecTnRFhs8-3" value="Availability zone" style="sketch=0;outlineConnect=0;gradientColor=none;html=1;whiteSpace=wrap;fontSize=12;fontStyle=0;shape=mxgraph.aws4.group;grIcon=mxgraph.aws4.group_availability_zone;strokeColor=#545B64;fillColor=none;verticalAlign=top;align=left;spacingLeft=30;fontColor=#545B64;dashed=1;" parent="lyv8LLGaktVecTnRFhs8-2" vertex="1">
          <mxGeometry x="143" y="30" width="130" height="110" as="geometry" />
        </mxCell>
        <mxCell id="lyv8LLGaktVecTnRFhs8-5" value="Availability zone" style="sketch=0;outlineConnect=0;gradientColor=none;html=1;whiteSpace=wrap;fontSize=12;fontStyle=0;shape=mxgraph.aws4.group;grIcon=mxgraph.aws4.group_availability_zone;strokeColor=#545B64;fillColor=none;verticalAlign=top;align=left;spacingLeft=30;fontColor=#545B64;dashed=1;" parent="lyv8LLGaktVecTnRFhs8-2" vertex="1">
          <mxGeometry x="453" y="30" width="130" height="110" as="geometry" />
        </mxCell>
        <mxCell id="lyv8LLGaktVecTnRFhs8-8" style="edgeStyle=orthogonalEdgeStyle;rounded=0;orthogonalLoop=1;jettySize=auto;html=1;" parent="lyv8LLGaktVecTnRFhs8-2" source="lyv8LLGaktVecTnRFhs8-4" target="lyv8LLGaktVecTnRFhs8-5" edge="1">
          <mxGeometry relative="1" as="geometry" />
        </mxCell>
        <mxCell id="lyv8LLGaktVecTnRFhs8-4" value="Availability zone" style="sketch=0;outlineConnect=0;gradientColor=none;html=1;whiteSpace=wrap;fontSize=12;fontStyle=0;shape=mxgraph.aws4.group;grIcon=mxgraph.aws4.group_availability_zone;strokeColor=#545B64;fillColor=none;verticalAlign=top;align=left;spacingLeft=30;fontColor=#545B64;dashed=1;" parent="lyv8LLGaktVecTnRFhs8-2" vertex="1">
          <mxGeometry x="303" y="170" width="130" height="110" as="geometry" />
        </mxCell>
        <mxCell id="lyv8LLGaktVecTnRFhs8-10" value="" style="shape=datastore;whiteSpace=wrap;html=1;" parent="lyv8LLGaktVecTnRFhs8-2" vertex="1">
          <mxGeometry x="186.5" y="70" width="43" height="50" as="geometry" />
        </mxCell>
        <mxCell id="lyv8LLGaktVecTnRFhs8-11" value="" style="shape=datastore;whiteSpace=wrap;html=1;" parent="lyv8LLGaktVecTnRFhs8-2" vertex="1">
          <mxGeometry x="346.5" y="190" width="43" height="50" as="geometry" />
        </mxCell>
        <mxCell id="lyv8LLGaktVecTnRFhs8-12" value="" style="shape=datastore;whiteSpace=wrap;html=1;" parent="lyv8LLGaktVecTnRFhs8-2" vertex="1">
          <mxGeometry x="503" y="60" width="43" height="50" as="geometry" />
        </mxCell>
        <mxCell id="lyv8LLGaktVecTnRFhs8-15" value="" style="edgeStyle=orthogonalEdgeStyle;rounded=0;orthogonalLoop=1;jettySize=auto;html=1;" parent="lyv8LLGaktVecTnRFhs8-2" source="lyv8LLGaktVecTnRFhs8-3" target="lyv8LLGaktVecTnRFhs8-14" edge="1">
          <mxGeometry relative="1" as="geometry">
            <mxPoint x="400" y="195" as="sourcePoint" />
            <mxPoint x="580" y="195" as="targetPoint" />
          </mxGeometry>
        </mxCell>
        <mxCell id="lyv8LLGaktVecTnRFhs8-14" value="" style="image;html=1;image=img/lib/clip_art/computers/Server_Rack_128x128.png" parent="lyv8LLGaktVecTnRFhs8-2" vertex="1">
          <mxGeometry x="296.5" y="40" width="107" height="100" as="geometry" />
        </mxCell>
        <mxCell id="lyv8LLGaktVecTnRFhs8-13" value="S3 : Simple storage Service.. 99.99% Avai, 99.999999999% durability" style="text;html=1;align=center;verticalAlign=middle;resizable=0;points=[];autosize=1;strokeColor=none;fillColor=none;" parent="1" vertex="1">
          <mxGeometry x="190" y="440" width="390" height="30" as="geometry" />
        </mxCell>
        <mxCell id="lyv8LLGaktVecTnRFhs8-17" style="edgeStyle=orthogonalEdgeStyle;rounded=0;orthogonalLoop=1;jettySize=auto;html=1;" parent="1" source="lyv8LLGaktVecTnRFhs8-16" target="lyv8LLGaktVecTnRFhs8-14" edge="1">
          <mxGeometry relative="1" as="geometry" />
        </mxCell>
        <mxCell id="lyv8LLGaktVecTnRFhs8-16" value="&lt;b&gt;India&lt;/b&gt;" style="image;aspect=fixed;html=1;points=[];align=center;fontSize=12;image=img/lib/azure2/management_governance/My_Customers.svg;" parent="1" vertex="1">
          <mxGeometry x="980" y="172" width="69" height="56.00000000000001" as="geometry" />
        </mxCell>
        <mxCell id="lyv8LLGaktVecTnRFhs8-18" style="edgeStyle=orthogonalEdgeStyle;rounded=0;orthogonalLoop=1;jettySize=auto;html=1;" parent="1" source="lyv8LLGaktVecTnRFhs8-14" target="lyv8LLGaktVecTnRFhs8-16" edge="1">
          <mxGeometry relative="1" as="geometry" />
        </mxCell>
        <mxCell id="lyv8LLGaktVecTnRFhs8-30" style="edgeStyle=orthogonalEdgeStyle;rounded=0;orthogonalLoop=1;jettySize=auto;html=1;entryX=1;entryY=0.5;entryDx=0;entryDy=0;" parent="1" source="lyv8LLGaktVecTnRFhs8-19" target="lyv8LLGaktVecTnRFhs8-25" edge="1">
          <mxGeometry relative="1" as="geometry" />
        </mxCell>
        <mxCell id="lyv8LLGaktVecTnRFhs8-19" value="USA" style="image;aspect=fixed;html=1;points=[];align=center;fontSize=12;image=img/lib/azure2/management_governance/My_Customers.svg;" parent="1" vertex="1">
          <mxGeometry x="1120" y="414" width="69" height="56.00000000000001" as="geometry" />
        </mxCell>
        <mxCell id="lyv8LLGaktVecTnRFhs8-32" style="edgeStyle=orthogonalEdgeStyle;rounded=0;orthogonalLoop=1;jettySize=auto;html=1;" parent="1" source="lyv8LLGaktVecTnRFhs8-33" target="lyv8LLGaktVecTnRFhs8-31" edge="1">
          <mxGeometry relative="1" as="geometry" />
        </mxCell>
        <mxCell id="lyv8LLGaktVecTnRFhs8-20" value="OZ" style="image;aspect=fixed;html=1;points=[];align=center;fontSize=12;image=img/lib/azure2/management_governance/My_Customers.svg;" parent="1" vertex="1">
          <mxGeometry x="700" y="580" width="69" height="56.00000000000001" as="geometry" />
        </mxCell>
        <mxCell id="lyv8LLGaktVecTnRFhs8-23" value="latency : Time to get response from Server" style="text;html=1;align=center;verticalAlign=middle;resizable=0;points=[];autosize=1;strokeColor=none;fillColor=none;" parent="1" vertex="1">
          <mxGeometry x="190" y="513" width="250" height="30" as="geometry" />
        </mxCell>
        <mxCell id="lyv8LLGaktVecTnRFhs8-25" value="&lt;b&gt;Freq Accessed Data&lt;/b&gt;&lt;div&gt;&lt;b&gt;Cache&lt;/b&gt;&lt;/div&gt;" style="image;html=1;image=img/lib/clip_art/computers/Server_Rack_128x128.png" parent="1" vertex="1">
          <mxGeometry x="953" y="400" width="27" height="50" as="geometry" />
        </mxCell>
        <mxCell id="lyv8LLGaktVecTnRFhs8-27" style="edgeStyle=orthogonalEdgeStyle;rounded=0;orthogonalLoop=1;jettySize=auto;html=1;entryX=0;entryY=0.5;entryDx=0;entryDy=0;" parent="1" source="lyv8LLGaktVecTnRFhs8-14" target="lyv8LLGaktVecTnRFhs8-25" edge="1">
          <mxGeometry relative="1" as="geometry" />
        </mxCell>
        <mxCell id="lyv8LLGaktVecTnRFhs8-31" value="&lt;b&gt;Freq Accessed Data&lt;/b&gt;&lt;div&gt;&lt;b&gt;Cache&lt;/b&gt;&lt;/div&gt;" style="image;html=1;image=img/lib/clip_art/computers/Server_Rack_128x128.png" parent="1" vertex="1">
          <mxGeometry x="620" y="480" width="27" height="50" as="geometry" />
        </mxCell>
        <mxCell id="lyv8LLGaktVecTnRFhs8-35" style="edgeStyle=orthogonalEdgeStyle;rounded=0;orthogonalLoop=1;jettySize=auto;html=1;" parent="1" source="lyv8LLGaktVecTnRFhs8-33" target="lyv8LLGaktVecTnRFhs8-20" edge="1">
          <mxGeometry relative="1" as="geometry" />
        </mxCell>
        <mxCell id="lyv8LLGaktVecTnRFhs8-37" value="" style="edgeStyle=orthogonalEdgeStyle;rounded=0;orthogonalLoop=1;jettySize=auto;html=1;" parent="1" source="lyv8LLGaktVecTnRFhs8-20" target="lyv8LLGaktVecTnRFhs8-33" edge="1">
          <mxGeometry relative="1" as="geometry">
            <mxPoint x="700" y="608" as="sourcePoint" />
            <mxPoint x="634" y="530" as="targetPoint" />
          </mxGeometry>
        </mxCell>
        <mxCell id="lyv8LLGaktVecTnRFhs8-33" value="Sydney" style="text;html=1;align=center;verticalAlign=middle;resizable=0;points=[];autosize=1;strokeColor=none;fillColor=none;" parent="1" vertex="1">
          <mxGeometry x="613" y="520" width="60" height="30" as="geometry" />
        </mxCell>
        <mxCell id="PtwWY0d7tNemNWUgsrt9-1" value="&lt;b&gt;&lt;font style=&quot;font-size: 19px;&quot;&gt;AWS Global Infra&lt;/font&gt;&lt;/b&gt;" style="text;html=1;align=center;verticalAlign=middle;resizable=0;points=[];autosize=1;strokeColor=none;fillColor=none;" vertex="1" parent="1">
          <mxGeometry x="30" y="13" width="180" height="40" as="geometry" />
        </mxCell>
        <mxCell id="PtwWY0d7tNemNWUgsrt9-2" value="&lt;b&gt;latency&lt;/b&gt;" style="text;html=1;align=center;verticalAlign=middle;resizable=0;points=[];autosize=1;strokeColor=none;fillColor=none;" vertex="1" parent="1">
          <mxGeometry x="900" y="148" width="60" height="30" as="geometry" />
        </mxCell>
      </root>
    </mxGraphModel>
  </diagram>
</mxfile>
